<?xml version="1.0" encoding="UTF-8" standalone="no"?>
<svg
   xmlns:dc="http://purl.org/dc/elements/1.1/"
   xmlns:cc="http://creativecommons.org/ns#"
   xmlns:rdf="http://www.w3.org/1999/02/22-rdf-syntax-ns#"
   xmlns:svg="http://www.w3.org/2000/svg"
   xmlns="http://www.w3.org/2000/svg"
   id="svg8"
   version="1.1"
   viewBox="0 0 100 100"
   height="100mm"
   width="100mm">
  <defs
     id="defs2" />
  <metadata
     id="metadata5">
    <rdf:RDF>
      <cc:Work
         rdf:about="">
        <dc:format>image/svg+xml</dc:format>
        <dc:type
           rdf:resource="http://purl.org/dc/dcmitype/StillImage" />
        <dc:title></dc:title>
      </cc:Work>
    </rdf:RDF>
  </metadata>
  <g
     transform="translate(0,-197)"
     id="layer1">
    <g
       id="flowRoot3713"
       style="font-style:normal;font-variant:normal;font-weight:normal;font-stretch:normal;font-size:120px;line-height:125%;font-family:sans-serif;-inkscape-font-specification:'sans-serif, Normal';font-variant-ligatures:normal;font-variant-caps:normal;font-variant-numeric:normal;font-feature-settings:normal;text-align:start;letter-spacing:0px;word-spacing:0px;writing-mode:lr-tb;text-anchor:start;fill:#000000;fill-opacity:1;stroke:none;stroke-width:1px;stroke-linecap:butt;stroke-linejoin:miter;stroke-opacity:1"
       transform="matrix(0.26782553,0,0,0.27089947,-25.543538,169.1106)"
       aria-label="{︷}">
      <path
         id="path3865"
         style="font-style:normal;font-variant:normal;font-weight:normal;font-stretch:normal;font-size:120px;font-family:sans-serif;-inkscape-font-specification:'sans-serif, Normal';font-variant-ligatures:normal;font-variant-caps:normal;font-variant-numeric:normal;font-feature-settings:normal;text-align:start;writing-mode:lr-tb;text-anchor:start;fill:#000000"
         d="m 207.0625,334.45501 v 8.4375 h -3.63281 q -14.58985,0 -19.57032,-4.33594 -4.92187,-4.33594 -4.92187,-17.28515 v -14.00391 q 0,-8.84766 -3.16406,-12.24609 -3.16407,-3.39844 -11.48438,-3.39844 h -3.57422 v -8.37891 h 3.57422 q 8.37891,0 11.48438,-3.33984 3.16406,-3.39844 3.16406,-12.12891 v -14.0625 q 0,-12.94922 4.92187,-17.22656 4.98047,-4.33594 19.57032,-4.33594 h 3.63281 v 8.37891 h -3.98438 q -8.26171,0 -10.78125,2.57812 -2.51953,2.57813 -2.51953,10.83985 v 14.53125 q 0,9.19922 -2.69531,13.35937 -2.63672,4.16016 -9.08203,5.625 6.50391,1.58203 9.14062,5.74219 2.63672,4.16016 2.63672,13.30078 v 14.53125 q 0,8.26172 2.51953,10.83984 2.51954,2.57813 10.78125,2.57813 z" />
      <path
         id="path3867"
         style="font-style:normal;font-variant:normal;font-weight:normal;font-stretch:normal;font-size:120px;font-family:sans-serif;-inkscape-font-specification:'sans-serif, Normal';font-variant-ligatures:normal;font-variant-caps:normal;font-variant-numeric:normal;font-feature-settings:normal;text-align:start;writing-mode:lr-tb;text-anchor:start;fill:#000000"
         d="m 334.5625,315.8222 h -8.90625 q 0,-10.3125 -9.375,-10.3125 H 297.0625 q -12.1875,0 -14.53125,-13.59375 h -0.9375 Q 279.25,305.5097 267.0625,305.5097 h -19.21875 q -9.375,0 -9.375,10.3125 h -8.90625 q 0.9375,-20.15625 16.40625,-20.625 h 21.5625 q 9.84375,-0.46875 9.84375,-15 h 9.375 q 0,14.53125 10.3125,15 h 21.09375 q 15.46875,0.46875 16.40625,20.625 z" />
      <path
         id="path3869"
         style="font-style:normal;font-variant:normal;font-weight:normal;font-stretch:normal;font-size:120px;font-family:sans-serif;-inkscape-font-specification:'sans-serif, Normal';font-variant-ligatures:normal;font-variant-caps:normal;font-variant-numeric:normal;font-feature-settings:normal;text-align:start;writing-mode:lr-tb;text-anchor:start;fill:#000000"
         d="m 357.0625,334.45501 h 4.10156 q 8.20313,0 10.66406,-2.51953 2.51954,-2.51953 2.51954,-10.89844 v -14.53125 q 0,-9.14062 2.63671,-13.30078 2.63672,-4.16016 9.14063,-5.74219 -6.50391,-1.46484 -9.14063,-5.625 -2.63671,-4.16015 -2.63671,-13.35937 V 253.9472 q 0,-8.32032 -2.51954,-10.83985 -2.46093,-2.57812 -10.66406,-2.57812 h -4.10156 v -8.37891 h 3.69141 q 14.58984,0 19.45312,4.33594 4.92188,4.27734 4.92188,17.22656 v 14.0625 q 0,8.73047 3.16406,12.12891 3.16406,3.33984 11.48437,3.33984 h 3.63282 v 8.37891 h -3.63282 q -8.32031,0 -11.48437,3.39844 -3.16406,3.39843 -3.16406,12.24609 v 14.00391 q 0,12.94921 -4.92188,17.28515 -4.86328,4.33594 -19.45312,4.33594 h -3.69141 z" />
    </g>
    <flowRoot
       style="fill:black;stroke:none;stroke-opacity:1;stroke-width:1px;stroke-linejoin:miter;stroke-linecap:butt;fill-opacity:1;font-family:sans-serif;font-style:normal;font-weight:normal;font-size:40px;line-height:125%;letter-spacing:0px;word-spacing:0px"
       id="flowRoot3721"
       xml:space="preserve"><flowRegion
         id="flowRegion3723"><rect
           y="93.089745"
           x="28.284271"
           height="114.58403"
           width="105.30874"
           id="rect3725" /></flowRegion><flowPara
         id="flowPara3727"></flowPara></flowRoot>    <g
       aria-label="{︷}"
       transform="matrix(0.26782553,0,0,0.27089947,-25.543538,169.1106)"
       style="font-style:normal;font-variant:normal;font-weight:normal;font-stretch:normal;font-size:120px;line-height:125%;font-family:sans-serif;-inkscape-font-specification:'sans-serif, Normal';font-variant-ligatures:normal;font-variant-caps:normal;font-variant-numeric:normal;font-feature-settings:normal;text-align:start;letter-spacing:0px;word-spacing:0px;writing-mode:lr-tb;text-anchor:start;fill:#000000;fill-opacity:1;stroke:none;stroke-width:1px;stroke-linecap:butt;stroke-linejoin:miter;stroke-opacity:1"
       id="g3878">
      <path
         d="m 207.0625,334.45501 v 8.4375 h -3.63281 q -14.58985,0 -19.57032,-4.33594 -4.92187,-4.33594 -4.92187,-17.28515 v -14.00391 q 0,-8.84766 -3.16406,-12.24609 -3.16407,-3.39844 -11.48438,-3.39844 h -3.57422 v -8.37891 h 3.57422 q 8.37891,0 11.48438,-3.33984 3.16406,-3.39844 3.16406,-12.12891 v -14.0625 q 0,-12.94922 4.92187,-17.22656 4.98047,-4.33594 19.57032,-4.33594 h 3.63281 v 8.37891 h -3.98438 q -8.26171,0 -10.78125,2.57812 -2.51953,2.57813 -2.51953,10.83985 v 14.53125 q 0,9.19922 -2.69531,13.35937 -2.63672,4.16016 -9.08203,5.625 6.50391,1.58203 9.14062,5.74219 2.63672,4.16016 2.63672,13.30078 v 14.53125 q 0,8.26172 2.51953,10.83984 2.51954,2.57813 10.78125,2.57813 z"
         style="font-style:normal;font-variant:normal;font-weight:normal;font-stretch:normal;font-size:120px;font-family:sans-serif;-inkscape-font-specification:'sans-serif, Normal';font-variant-ligatures:normal;font-variant-caps:normal;font-variant-numeric:normal;font-feature-settings:normal;text-align:start;writing-mode:lr-tb;text-anchor:start;fill:#000000"
         id="path3872" />
      <path
         d="m 334.5625,315.8222 h -8.90625 q 0,-10.3125 -9.375,-10.3125 H 297.0625 q -12.1875,0 -14.53125,-13.59375 h -0.9375 Q 279.25,305.5097 267.0625,305.5097 h -19.21875 q -9.375,0 -9.375,10.3125 h -8.90625 q 0.9375,-20.15625 16.40625,-20.625 h 21.5625 q 9.84375,-0.46875 9.84375,-15 h 9.375 q 0,14.53125 10.3125,15 h 21.09375 q 15.46875,0.46875 16.40625,20.625 z"
         style="font-style:normal;font-variant:normal;font-weight:normal;font-stretch:normal;font-size:120px;font-family:sans-serif;-inkscape-font-specification:'sans-serif, Normal';font-variant-ligatures:normal;font-variant-caps:normal;font-variant-numeric:normal;font-feature-settings:normal;text-align:start;writing-mode:lr-tb;text-anchor:start;fill:#000000"
         id="path3874" />
      <path
         d="m 357.0625,334.45501 h 4.10156 q 8.20313,0 10.66406,-2.51953 2.51954,-2.51953 2.51954,-10.89844 v -14.53125 q 0,-9.14062 2.63671,-13.30078 2.63672,-4.16016 9.14063,-5.74219 -6.50391,-1.46484 -9.14063,-5.625 -2.63671,-4.16015 -2.63671,-13.35937 V 253.9472 q 0,-8.32032 -2.51954,-10.83985 -2.46093,-2.57812 -10.66406,-2.57812 h -4.10156 v -8.37891 h 3.69141 q 14.58984,0 19.45312,4.33594 4.92188,4.27734 4.92188,17.22656 v 14.0625 q 0,8.73047 3.16406,12.12891 3.16406,3.33984 11.48437,3.33984 h 3.63282 v 8.37891 h -3.63282 q -8.32031,0 -11.48437,3.39844 -3.16406,3.39843 -3.16406,12.24609 v 14.00391 q 0,12.94921 -4.92188,17.28515 -4.86328,4.33594 -19.45312,4.33594 h -3.69141 z"
         style="font-style:normal;font-variant:normal;font-weight:normal;font-stretch:normal;font-size:120px;font-family:sans-serif;-inkscape-font-specification:'sans-serif, Normal';font-variant-ligatures:normal;font-variant-caps:normal;font-variant-numeric:normal;font-feature-settings:normal;text-align:start;writing-mode:lr-tb;text-anchor:start;fill:#000000"
         id="path3876" />
    </g>
  </g>
</svg>
